# xmcd
#
# Track frame offsets: 
#        150
#        22025
#        48962
#        75355
#        102835
#        132965
#        164842
#        199530
#        226487
#        253545
#        275622
#        299945
#        329060
#
# Disc length: 4709 seconds
#
# Revision: 8
# Processed by: cddbd v1.5.2PL0 Copyright (c) Steve Scherf et al.
# Submitted via: ExactAudioCopy v1.3
#
DISCID=c312630d
DTITLE=Leonard Cohen - The Essential Leonard Cohen - Disc 2
DYEAR=2002
DGENRE=Singer Songwriter
TTITLE0=Ain't No Cure For Love
TTITLE1=Take This Waltz
TTITLE2=First We Take Manhattan
TTITLE3=Dance Me To The End Of Love (Live)
TTITLE4=The Future
TTITLE5=Democracy
TTITLE6=Waiting For The Miracle
TTITLE7=Closing Time
TTITLE8=Anthem
TTITLE9=In My Secret Life
TTITLE10=Alexandra Leaving
TTITLE11=A Thousand Kisses Deep
TTITLE12=Love Itself
EXTD=YEAR: 2002
EXTT0=
EXTT1=
EXTT2=
EXTT3=
EXTT4=
EXTT5=
EXTT6=
EXTT7=
EXTT8=
EXTT9=
EXTT10=
EXTT11=
EXTT12=
PLAYORDER=
